<svg xmlns="http://www.w3.org/2000/svg" viewBox="0 0 1000 800"><defs><style>.cls-1{fill:none;stroke:#442257;}.cls-1,.cls-3,.cls-4{stroke-linecap:round;stroke-linejoin:round;stroke-width:4px;}.cls-2{fill:#abdddf;}.cls-3{fill:#f15d4a;stroke:#f15d4a;}.cls-4{fill:#fab550;stroke:#fab550;}</style></defs><g id="Layer_2" data-name="Layer 2"><path class="cls-1" d="M159.56,364.36c4.27,6.06,6.33,18.3,7.93,25.45"/><path class="cls-1" d="M192.21,360.31c-4.56,13.42-9.33,20.4-10.28,30.49"/><path class="cls-1" d="M184.25,351.35c-5.13,14.57-5.19,24.5-6.87,39.27"/><path class="cls-1" d="M170.14,360c.36,3.27,1.34,17.36,2.68,31.43"/><path class="cls-1" d="M166.69,387.38c-.79-6.64-13.45-13.83-19.67-12.89-5.45.82-7.07,4.74-4.24,8.28C147,388,161,389.42,166.69,387.38Z"/><path class="cls-1" d="M184.39,382.12c3.58-2.12,21.17-15.65,21.36-3.62.12,8-16.69,5.42-21,5.23"/><line class="cls-1" x1="547.18" y1="241.36" x2="547.18" y2="483.7"/><path class="cls-1" d="M495,340.42c.27,11.64-2.21,23.19-2.86,34.83-.82,14.51-1.23,31.19,2,45.4,3.08,13.39,9.83,25.44,13.34,38.59A28,28,0,0,1,505.42,478"/><path class="cls-1" d="M362.62,421.41A198.47,198.47,0,0,0,375,402.61c5.1-1.71,12.91-2.55,18.23-1.4,10.66,2.3,17.49,10.13,22.84,19.1,4.53,7.58,8.44,14,13.13,22.71-5.3,1.53-15.15,5.68-15.15,5.68"/><path class="cls-1" d="M401,424.15c4.82,3.33,10.59,20.6,14.14,26.59,2.43,4.11,8.05,15.26,8.05,15.26"/><path class="cls-1" d="M427.91,443.42c6.84,10.57,17.28,25.76,29.12,31.26"/><path class="cls-1" d="M458.31,475.17c-3.28-11.33-21-64.93-25.31-78.25-5.75-17.69-12.7-38.29-19.9-55.45-3.72-8.85-7.17-12.59-16.65-13.51-16.88-1.65-114.61,1.93-130.47,1.81-12.64-.09-44.31,3.27-51.47,5.77"/><path class="cls-2" d="M358.62,497.4a405.25,405.25,0,0,0,40.74,5.72c16.12,1.46,31.58,5.93,47.65,6.6a251.35,251.35,0,0,1,47,6.84c8.12,1.94,20.83,5.34,26.17,12.32l1.08,1.27H725.7s30.63-1.07,57.81-1.9l-.48-.43c-4-3.44-7.9-10.18-10.13-16.16-3.35-9-3.76-13-8.81-21.1-5.37-8.63-12.25-16.93-23.46-19-12.26-2.23-20.62,7.36-31.94,7.22-9.62-.12-16.16-8.74-26.41-7.34-14.41,2-24.86,9.62-39.9,10.75-17.07,1.27-35.49,1.08-52.55.54-10.18-.32-19.51-1.25-29.63,0-7,.86-16.66,1.64-23.71,0s-13.93-.68-20.83-2.4a35.74,35.74,0,0,0-13-1c-8.31,1.13-15.48-.94-24.16-1.37a67.66,67.66,0,0,0-13.4,1.1h0c-6.71-4.95-12.09-5.77-18.44-6.24-1-.07-2-.09-3-.07v0c-9.13-6.54-26.64-8-40.32-5.91-11.69,1.81-22.11,4-32.36,10.28a76.3,76.3,0,0,0-20.09,17.49A38.28,38.28,0,0,0,358.62,497.4Z"/><path class="cls-3" d="M518,286.52c-1.53-.08-3.36.27-5.61.33a56.76,56.76,0,0,1-6.79-.31c.34,6.68.62,14,.62,14s-15.49.28-22.44.12c-.06-.84-.28-7.38-.47-13.48a50.54,50.54,0,0,1-10.67.74c.07,1.68.12,3.11.09,4.12-.22,10.12-.64,20.24-.16,30.37a7.29,7.29,0,0,0,5.78,6.82c7.35,1.47,16.09.68,23.56.77,3.13,0,10.7,1.74,13.23-.77,3.58-3.57,2.18-19,2.63-23.94A134.51,134.51,0,0,0,518,286.52Z"/><path class="cls-1" d="M310.26,512.28a24.54,24.54,0,0,0,15.23,13.15c7.05,2.35,29.62,4.72,56.26,4.72"/><path class="cls-1" d="M338.25,480.77c-.35,9.38,16.07,15.78,20.37,16.63a405.25,405.25,0,0,0,40.74,5.72c16.12,1.46,31.58,5.93,47.65,6.6a251.35,251.35,0,0,1,47,6.84c8.12,1.94,20.83,5.34,26.17,12.32"/><path class="cls-1" d="M308.86,487c3.33-.86,6.74-1.83,9.87-2.47,4.76-1,21.95-5.77,21.95-5.77-2.62-5.84-5.5-25.73-6.26-31.65"/><path class="cls-1" d="M367.69,425.35c-4.56-2.89-14.5-8.31-19.46-11.25-7.12-4.23-15.65-9-15.65-9-12.46,1.37-31.49,5.82-35.73,17.75-3.75,10.57-3.39,22.51-2.39,34"/><path class="cls-1" d="M372.19,499.62c2.24-5.44,10.36-12,15.75-14.07"/><path class="cls-1" d="M390.19,500.75c5.28-9.86,15.87-18,25.31-22.87,7.9-4.06,17.79-7.17,27.18-7.05"/><path class="cls-1" d="M438.77,490c7.43-5.06,15.21-11.5,24.1-12.9"/><path class="cls-1" d="M299.91,417.44c0-18.34-10.13-37.4-23.33-49.94,11.66,10.25,6.85,30.45,13.3,41.28"/><path class="cls-1" d="M303,380.9c5,.71,8.24,5.23,10.13,9.56"/><path class="cls-1" d="M310.23,358.65c4.49,1.25,7.31,4.77,10.45,8"/><path class="cls-1" d="M293.13,448.7c-9.58-10.41-19.88-33.11-23.78-45.27-3.84-11.94-3.46-24.76-5.21-37-.62-4.36-4.22-10.54-2.22-14.77,2.45-5.18,9.59-2.2,14.74-2.29,8.92-2.7,33.52-5.07,38.79-4.85"/><path class="cls-1" d="M353.94,342.68c5.82-1.31,19.37-2.13,24.84-.11,1.23-1.39,4.61-2.66,6.38-1.07,2.73,2.47-.83,3.2-.48,5.2,1.05,5.9,5.81,11.91,9.21,20s6.51,23.78,7.56,36.74"/><path class="cls-1" d="M202.78,382.88c4.11,11.91,8.27,24.15,9.92,29.54,3.54,11.58,12.69,42.1,12.69,42.1"/><path class="cls-1" d="M194.69,359.58c1.26,3.62,3,8.67,5,14.27"/><path class="cls-1" d="M236.41,339.32c-.07,6.11,4.82,18.39,6.44,24.14,2.19,7.72,11.71,35.86,15.86,50.64,3.36,11.95,10.57,29.74,14.83,41.43"/><path class="cls-1" d="M210.74,337.48S223,376.1,225,383.09c3.48,11.84,24.26,71.65,24.26,71.65"/><path class="cls-1" d="M491.2,241.15s-2.56,8.73,3.1,9.47c2.07.27,5.38-1.93,7.84-1.82,6,.27,10,.5,20.13.31L571,248.2c9.26-.18,18.39-1.23,27.06,2.27,10.63,4.3,6.94-7.23,6.94-7.23"/><path class="cls-1" d="M554.25,240.79c-3.64,0-14.14.49-14.14.49"/><line class="cls-1" x1="547.18" y1="610.92" x2="547.18" y2="674.01"/><path class="cls-1" d="M517.13,268a5.29,5.29,0,0,0-5.22-5.37l-22.77-.32c-3.16,0-12.12-1.05-14.48,1-3.94,3.48-1.83,22.93-2,28.74-.22,10.12-.64,20.24-.16,30.37a7.29,7.29,0,0,0,5.78,6.82c7.35,1.47,16.09.68,23.56.77,3.13,0,10.7,1.74,13.23-.77,3.58-3.57,2.18-19,2.63-23.94.93-10.21.23-20.18-.52-30.32C517.09,273.19,517.09,270.45,517.13,268Z"/><line class="cls-1" x1="494.92" y1="261.93" x2="495.48" y2="247.72"/><path class="cls-1" d="M482.94,276.28s.68,22.8.81,24.43c6.95.16,22.44-.12,22.44-.12s-.88-23-1.4-24.56C497.16,275.89,482.94,276.28,482.94,276.28Z"/><path class="cls-1" d="M487.43,331.65c.08,2,.11,4.09.27,6.1,4.44,1.73,10.14,1.05,15.05.66,0-1.94-.09-5.93-.12-6.67"/><path class="cls-1" d="M727.78,500.8c3.41,4.77,4.48,12,6.53,17.45a31.74,31.74,0,0,0,5.38,9.73"/><path class="cls-1" d="M488.2,520.84c5.55,1.8,13.89,5.17,18.48,8.71"/><path class="cls-1" d="M332.58,405.09a86.31,86.31,0,0,0-2.7-11c-.61-1.91-1.19-3.82-1.77-5.74-3.41,3.13-9.83.44-9.31-4.5.36-3.39,3.48-4.85,6.56-4.82-.86-2.82-1.76-5.64-2.77-8.41-2.08-5.73-4.29-11.57-6.12-17.36-1-3.23-1.55-7.44.15-10.42,3.55-6.19,14.56-9.25,21.27-8.92,3.42.17,6.4.18,9.38,2.14,5.35,3.52,8,10.94,10.27,16.7,2,5.25,11.54,34.35,11.54,34.35,2.28,6.75,4.65,15.83,4.65,15.83"/><line class="cls-1" x1="340.1" y1="363.69" x2="339.48" y2="361.57"/><line class="cls-1" x1="351.51" y1="359.88" x2="350.89" y2="357.76"/><path class="cls-1" d="M347.28,336.49c-3,2.81-5.56,4.59-9.72,5.42-3,.59-9.27.42-10.64,3.45-1.27,2.83,1,6,0,8.87-.41,1.17-1.93,1.58-2.37,2.62s.12,2.45.3,3.57c.7,4.49,2.51,10.17.25,14.36"/><path class="cls-1" d="M115.65,591.54c.54-21,1.15-42.08,1.15-63.16,0-14.92.83-50,1.19-64.93a6.9,6.9,0,0,1,7-6.73c7.35.14,19.06.32,27.31.23,52-.6,99.29-2.11,151.08,1.3a4.63,4.63,0,0,1,4.32,4.39c.55,11.35,2,42.77,2,51.23,0,11,.61,59.13.38,73.16-.78,49.09-1.16,103.44-1.35,152.54"/><path class="cls-1" d="M197.66,464.69c0,28.78-.59,57.61-1.91,86.31-.85,18.61,0,85.74,0,85.74"/><path class="cls-1" d="M194.74,665.14v7.79"/><path class="cls-1" d="M211.38,493.92c25,.64,61.32-1.28,84.19-.58"/><line class="cls-1" x1="254.24" y1="505.81" x2="256.19" y2="502.88"/><path class="cls-1" d="M211.38,546.61c16.36.42,32.1.88,48.28.47,7.7-.2,35.91-.2,35.91-.2"/><line class="cls-1" x1="250.57" y1="560.86" x2="254.02" y2="557.41"/><path class="cls-1" d="M211.38,595.35c28,0,56.18,1,84.19,1"/><line class="cls-1" x1="250.35" y1="612.42" x2="254.24" y2="609.5"/><path class="cls-1" d="M310.19,571.61c4.9-.21,48.22,1,74,1h277.6c40.55,0,68.33-.3,108.73-1.76,16.19-.59,32.57-1,48.76-1.16,17.85-.2,53.38.07,53.38.07s2.77,26.92-2.88,32.31c-10.93,10.44-26,6.42-57.73,6.42s-63.22.63-101.28,1.14c-45.47.61-90.87.58-136.61.52-20.84,0-42,.45-63,.45-19.9,0-121,1-151.88,1-13.54,0-49.55.06-49.55.06"/><path class="cls-1" d="M363.27,571.61c5.81-27.8,7.43-55.8,20.34-67.63,3.84-3.52,10.38-4.67,15.91-5.24,20.53-2.12,42.48,0,63.12,0H647.51c24.33,0,39,3,37.5,18.58-1.33,14-10.08,54.37-10.08,54.37"/><path class="cls-1" d="M409.87,571.61c4.33-17.28,10.34-58.2,16.69-72.05"/><path class="cls-1" d="M455.9,571c3.83-16.2,10.88-55.62,16.8-70.34"/><path class="cls-1" d="M502.05,570.88c3.92-16.49,9.81-55.18,14.77-70.35"/><path class="cls-1" d="M546.16,571.61c4.82-17.19,11-55.89,15.13-72.1"/><path class="cls-1" d="M590.64,571.69c4-15.32,8.14-56.94,12.56-72.18"/><path class="cls-1" d="M632.55,571.61c4.77-16.9,9.11-55.2,12.66-72.05"/><path class="cls-1" d="M862.09,568.69c0-9.08,2.52-31.48-4.73-36.7-6.32-4.55-20-4.68-35.21-4.68s-96.45,2.84-96.45,2.84H311.64"/><path class="cls-1" d="M475.24,717.63c.82-7.5,7.47-15,14.32-18.52,11.38-5.8,26.05-12.74,31.84-15.25,10.75-4.66,26.53-9.85,26.53-9.85s50.46,18,70.4,28.74c5,2.71,8.93,6,10.35,10.37"/><path class="cls-1" d="M547.93,674s-14.54,11.86-24.35,23.06"/><line class="cls-1" x1="676.66" y1="699.11" x2="676.66" y2="609.87"/><line class="cls-1" x1="692.74" y1="609.7" x2="692.74" y2="695.41"/><line class="cls-1" x1="417.1" y1="611.27" x2="417.1" y2="674.01"/><line class="cls-1" x1="401.03" y1="697.12" x2="401.03" y2="611.39"/><path class="cls-1" d="M665.56,730.83c-10.34-19.55,12.08-40.59,32.24-34.29,11.76,3.68,15.28,18.7,11.56,29.3"/><path class="cls-1" d="M690.26,725c-9.39,7.63-18.66-12.4-6.23-14.75C691.62,708.77,696.09,720.22,690.26,725Z"/><line class="cls-1" x1="823.5" y1="694.05" x2="823.5" y2="608.63"/><line class="cls-1" x1="839.58" y1="609.15" x2="839.58" y2="665.14"/><line class="cls-1" x1="839.58" y1="684.49" x2="839.58" y2="695.41"/><path class="cls-1" d="M815.93,701.42c6.53-8.53,18.11-9.43,27-4.28,5.25,3.06,10.24,7.55,11.54,14.62.17,1,.31,1.92.39,2.86,2.16,23.39-24,34.72-39,20.23"/><path class="cls-1" d="M836,711c9.9,6.61-5.61,24-11.07,11.41C822,715.53,828.88,706.2,836,711Z"/><path class="cls-1" d="M740.82,580.38v26.31"/><path class="cls-4" d="M137.73,309.74c-.38-6.45,5.64-19.92,10.05-7.73,2.31-11.12,23.89-20.76,19-3.3,2.83-2.71,13.82-4.37,9.82,2.19,4-5.75,22.46-19.16,21.27-3.2,11.75-8.32,23.73,17.46,11.93,15,11.31-3.25,6.88,20.49,1,11.89,3,1.69,7.14,9.39,2.61,12-3,1.72-8.68-1-10.87-3,2.08,1.8,5.07,3.83,5.81,6.7.93,3.53-1.48,9.85-5.75,7.8,3.14-1.49,3,2.15,2.35,4.76-1.09,4.32-6.23,6.85-10.39,6.8-8.63-.09-13.25-9.37-9.2-16.44-.85,3.19-2.78,7.66-5.9,9.28-4.25,2.21-11.36-.52-8.77-5.63,10,8.22-6.17,16.83-7.6,9.2,4.47,9.46-11.08,10-15.93,5.6-3.09-2.79-5.73-8.94-.13-12.67-3.52,2.72-8.52,3.89-12.88,1.4-2.84-1.62-8.32-7.15-3.34-11.6-6.08-.75-11.48-6.45-11.79-12.56-.22-4.35,1.17-9.51,6.47-8.72C122.46,308.13,131.69,303.2,137.73,309.74Z"/><line class="cls-1" x1="153.45" y1="339.42" x2="153.39" y2="337.73"/><line class="cls-1" x1="149.25" y1="318.48" x2="149.75" y2="316.76"/><line class="cls-1" x1="166.08" y1="324.89" x2="166.58" y2="323.17"/><line class="cls-1" x1="187.55" y1="318.22" x2="187.51" y2="317.09"/><line class="cls-1" x1="172.91" y1="309.02" x2="173.39" y2="306.74"/><line class="cls-1" x1="203.12" y1="311.3" x2="203.62" y2="309.59"/><line class="cls-1" x1="194.16" y1="334.59" x2="194.66" y2="332.87"/><line class="cls-1" x1="196.34" y1="347.51" x2="196.84" y2="345.8"/><line class="cls-1" x1="177.3" y1="337.48" x2="177.78" y2="335.2"/><line class="cls-1" x1="161.95" y1="352.49" x2="162.43" y2="350.21"/><line class="cls-1" x1="130.95" y1="319.02" x2="130.88" y2="317.32"/><line class="cls-1" x1="158.21" y1="301.62" x2="158.71" y2="299.9"/><path class="cls-1" d="M207.67,328.38a2.17,2.17,0,0,1,.51-1.53"/><path class="cls-1" d="M137.67,344.31v-1"/><path class="cls-1" d="M189.8,300.3v-1.54"/><path class="cls-1" d="M143.33,305.4v-1.53"/><path class="cls-1" d="M137.57,329.57a2.14,2.14,0,0,1,.07,1.63"/><path class="cls-1" d="M159.71,392.64a14.67,14.67,0,0,1,3.33-.85c3.12-.54,6.61-.31,9.78-.36,5.16-.08,10.16-1,15.35-.91,2.15,6.77,3.77,14.32,5.48,21.3,2.33,9.57,10.67,43.1-5.23,43.94-12.67.67-35.15,4.56-38.09-8.67-3.58-16.15,3.41-33.23,6.63-48.51C157.71,395,157.71,393.53,159.71,392.64Z"/><line class="cls-1" x1="162.63" y1="432.73" x2="172.49" y2="439.15"/><line class="cls-1" x1="168.65" y1="426.16" x2="184.24" y2="434.62"/><line class="cls-1" x1="168.18" y1="415.83" x2="174" y2="419.18"/><path class="cls-1" d="M344.1,372.72c4.4,1.48,8.16,1.15,10.67-3"/></g></svg>